<svg xmlns="http://www.w3.org/2000/svg" viewBox="0 0 1000 560" font-family="system-ui, -apple-system, Segoe UI, Roboto, sans-serif">
<rect width="1000" height="560" fill="#F6F7F3"/>
<circle cx="64" cy="56" r="26" fill="#FFE600"/>
<text x="64" y="66" text-anchor="middle" font-size="28" font-weight="800" fill="#17211C">1</text>
<text x="106" y="66" font-size="26" font-weight="800" fill="#17211C">Creá tu aplicación gratis en MercadoLibre</text>
<rect x="70" y="100" width="860" height="400" rx="14" fill="#FFFFFF" stroke="#DDE2DB" /><rect x="70" y="100" width="860" height="46" rx="14" fill="#FFE600"/><rect x="70" y="126" width="860" height="20" fill="#FFE600"/><text x="94" y="130" font-size="16" font-weight="800" fill="#17211C">developers.mercadolibre.com.ar — Crear nueva aplicación</text><text x="100" y="176" font-size="14" font-weight="700" fill="#5C665F">Nombre de la aplicación</text>
<rect x="100" y="184" width="380" height="40" rx="8" fill="#F6F7F3" stroke="#DDE2DB"/>
<text x="112" y="210" font-size="15" fill="#17211C" >Mi conector Claude</text><text x="520" y="176" font-size="14" font-weight="700" fill="#5C665F">Descripción corta</text>
<rect x="520" y="184" width="380" height="40" rx="8" fill="#F6F7F3" stroke="#DDE2DB"/>
<text x="532" y="210" font-size="15" fill="#17211C" >Conector MCP para Claude AI</text><text x="100" y="252" font-size="14" font-weight="700" fill="#5C665F">URI de redirect  (copiala EXACTA, sin barra final)</text>
<rect x="100" y="260" width="800" height="40" rx="8" fill="#F6F7F3" stroke="#E5484D" stroke-width="2.5" stroke-dasharray="7 5"/>
<text x="112" y="286" font-size="15" fill="#17211C" font-family="ui-monospace, Consolas, monospace">https://kokesaurio.github.io/mercadolibre-sellers-mcp-algoritmo-Digital/conectar.html</text><text x="100" y="330" text-anchor="start" font-size="14.5" font-weight="700" fill="#E5484D">← Este campo es el que más errores causa: tiene que ser idéntica</text><text x="100" y="372" font-size="14" font-weight="700" fill="#5C665F">Scopes (permisos)</text><rect x="100" y="386" width="20" height="20" rx="5" fill="#00A650"/><path d="M 104 396 l 4 4 l 8 -9" stroke="white" stroke-width="2.6" fill="none"/><text x="130" y="402" font-size="15" fill="#17211C">read (leer)</text><rect x="280" y="386" width="20" height="20" rx="5" fill="#00A650"/><path d="M 284 396 l 4 4 l 8 -9" stroke="white" stroke-width="2.6" fill="none"/><text x="310" y="402" font-size="15" fill="#17211C">write (escribir)</text><rect x="490" y="386" width="20" height="20" rx="5" fill="#00A650"/><path d="M 494 396 l 4 4 l 8 -9" stroke="white" stroke-width="2.6" fill="none"/><text x="520" y="402" font-size="15" fill="#17211C">offline_access — sin este, la sesión se corta cada 6 horas</text><text x="510" y="428" text-anchor="start" font-size="14.5" font-weight="700" fill="#E5484D">↑ imprescindible</text><rect x="760" y="440" width="140" height="42" rx="9" fill="#3483FA"/><text x="830.0" y="467" text-anchor="middle" font-size="15.5" font-weight="700" fill="white">Guardar</text>
<text x="500" y="544" text-anchor="middle" font-size="13" fill="#5C665F">Guía del conector MCP de MercadoLibre — Algoritmo Digital · algoritmodigital.com.ar</text>
</svg>