<svg xmlns="http://www.w3.org/2000/svg" viewBox="0 0 1000 630" font-family="system-ui, -apple-system, Segoe UI, Roboto, sans-serif">
<rect width="1000" height="630" fill="#F6F7F3"/>
<circle cx="64" cy="56" r="26" fill="#FFE600"/>
<text x="64" y="66" text-anchor="middle" font-size="28" font-weight="800" fill="#17211C">4</text>
<text x="106" y="66" font-size="26" font-weight="800" fill="#17211C">Conectá tu cuenta (una sola vez)</text>
<rect x="70" y="100" width="270" height="330" rx="14" fill="#FFFFFF" stroke="#DDE2DB" /><text x="90" y="132" font-size="14" font-weight="800" fill="#5C665F">EN CLAUDE</text><rect x="90" y="150" width="230" height="56" rx="12" fill="#F6F7F3" stroke="#DDE2DB"/><text x="102" y="174" font-size="13.5" fill="#17211C">Conectá mi cuenta de</text><text x="102" y="192" font-size="13.5" fill="#17211C">MercadoLibre</text><text x="90" y="240" font-size="13.5" fill="#5C665F">Claude te devuelve un link:</text><text x="90" y="264" font-size="13" font-family="ui-monospace, Consolas, monospace" fill="#3483FA" text-decoration="underline">auth.mercadolibre.com.ar/…</text><text x="90" y="300" font-size="13.5" fill="#17211C">Abrilo e iniciá sesión con</text><text x="90" y="318" font-size="13.5" fill="#17211C">TU cuenta de vendedor.</text><path d="M 350 260 h 40 m -10 -8 l 10 8 l -10 8" stroke="#17211C" stroke-width="2.5" fill="none"/><rect x="400" y="100" width="270" height="330" rx="14" fill="#FFFFFF" stroke="#DDE2DB" /><rect x="400" y="100" width="270" height="40" rx="14" fill="#FFE600"/><rect x="400" y="122" width="270" height="18" fill="#FFE600"/><text x="420" y="126" font-size="14" font-weight="800" fill="#17211C">MercadoLibre</text><text x="420" y="180" font-size="14" fill="#17211C">La app "Mi conector Claude"</text><text x="420" y="200" font-size="14" fill="#17211C">quiere acceder a tu cuenta</text><rect x="420" y="240" width="230" height="42" rx="9" fill="#3483FA"/><text x="535.0" y="267" text-anchor="middle" font-size="15.5" font-weight="700" fill="white">Autorizar</text><path d="M 680 260 h 40 m -10 -8 l 10 8 l -10 8" stroke="#17211C" stroke-width="2.5" fill="none"/><rect x="730" y="100" width="200" height="330" rx="14" fill="#FFFFFF" stroke="#DDE2DB" /><text x="750" y="132" font-size="13" font-weight="800" fill="#5C665F">PÁGINA DEL CÓDIGO</text><text x="750" y="164" font-size="13" fill="#00A650" font-weight="700">✓ Autorizaste tu cuenta</text><rect x="750" y="185" width="160" height="46" rx="9" fill="#17211C"/><text x="830" y="213" text-anchor="middle" font-size="13.5" font-family="ui-monospace, Consolas, monospace" fill="#FFE600">TG-68d1a…</text><rect x="750" y="250" width="160" height="42" rx="9" fill="#3483FA"/><text x="830.0" y="277" text-anchor="middle" font-size="15.5" font-weight="700" fill="white">Copiar código</text><rect x="750" y="185" width="160" height="46" rx="9" fill="none" stroke="#E5484D" stroke-width="2.5" stroke-dasharray="7 5"/><rect x="70" y="470" width="860" height="120" rx="14" fill="#FFFFFF" stroke="#DDE2DB" /><text x="94" y="508" font-size="15" font-weight="700" fill="#17211C">Volvé a Claude, pegá el código, y listo — una sola vez y para siempre:</text><text x="94" y="540" font-size="14.5" fill="#00A650" font-weight="700">✓ Cuenta conectada: TU_TIENDA (MLA). Ya podés pedirme ventas, publicaciones, preguntas y más.</text><text x="94" y="568" font-size="14" fill="#5C665F">Probá: "¿cómo vienen las ventas de la semana?" · "¿qué preguntas tengo sin responder?" · "¿estoy ganando el catálogo?"</text>
<text x="500" y="614" text-anchor="middle" font-size="13" fill="#5C665F">Guía del conector MCP de MercadoLibre — Algoritmo Digital · algoritmodigital.com.ar</text>
</svg>